M48
;DRILL file {KiCad 4.0.4-stable} date 11/06/16 20:17:00
;FORMAT={-:-/ absolute / metric / decimal}
FMAT,2
METRIC,TZ
T1C0.400
T2C0.700
T3C1.016
T4C1.499
T5C2.800
%
G90
G05
M71
T1
X-108.45Y5.35
X-101.45Y11.1
X-99.45Y12.345
X-93.69Y17.35
X-91.496Y-14.629
X-91.34Y7.64
X-91.26Y-1.64
X-91.15Y11.84
X-90.Y6.
X-89.13Y10.2
X-88.Y17.
X-87.33Y9.4
X-87.25Y22.75
X-84.Y16.5
X-81.05Y-6.65
X-79.16Y8.66
X-78.75Y16.35
X-77.8Y20.95
X-77.63Y11.57
X-74.75Y14.7
X-74.35Y20.95
X-72.6Y-6.65
X-72.3Y17.15
X-65.5Y13.
T3
X-108.74Y11.12
X-108.74Y8.58
X-106.2Y11.12
X-106.2Y8.58
X-103.75Y11.12
X-103.75Y8.58
T4
X-108.585Y21.59
X-108.585Y2.54
X-108.585Y-16.51
X-102.235Y24.13
X-102.235Y5.08
X-102.235Y-13.97
X-89.535Y21.59
X-89.535Y2.54
X-89.535Y-16.51
X-83.185Y24.13
X-83.185Y5.08
X-83.185Y-13.97
X-70.485Y21.59
X-70.485Y2.54
X-70.485Y-16.51
X-64.135Y24.13
X-64.135Y5.08
X-64.135Y-13.97
X-51.435Y21.59
X-51.435Y2.54
X-51.435Y-16.51
X-45.085Y24.13
X-45.085Y5.08
X-45.085Y-13.97
X-32.385Y21.59
X-32.385Y2.54
X-32.385Y-16.51
X-26.035Y24.13
X-26.035Y5.08
X-26.035Y-13.97
X-13.335Y21.59
X-13.335Y2.54
X-6.985Y24.13
X-6.985Y5.08
X-3.81Y-16.51
X2.54Y-13.97
X5.715Y21.59
X5.715Y2.54
X12.065Y24.13
X12.065Y5.08
X24.765Y21.59
X24.765Y2.54
X24.765Y-16.51
X31.115Y24.13
X31.115Y5.08
X31.115Y-13.97
X43.815Y21.59
X43.815Y2.54
X43.815Y-16.51
X50.165Y24.13
X50.165Y5.08
X50.165Y-13.97
X62.865Y21.59
X62.865Y2.54
X62.865Y-16.51
X69.215Y24.13
X69.215Y5.08
X69.215Y-13.97
X81.915Y21.59
X81.915Y2.54
X81.915Y-16.51
X88.265Y24.13
X88.265Y5.08
X88.265Y-13.97
X100.965Y21.59
X100.965Y2.54
X100.965Y-16.51
X107.315Y24.13
X107.315Y5.08
X107.315Y-13.97
T2
X-99.41Y22.24G85X-99.41Y24.74
G05
X-92.11Y22.24G85X-92.11Y24.74
G05
T5
X-96.15Y-19.05G85X-94.35Y-19.05
G05
X-58.05Y19.05G85X-56.25Y19.05
G05
X-19.95Y0.G85X-18.15Y0.
G05
X18.15Y0.G85X19.95Y0.
G05
X56.25Y19.05G85X58.05Y19.05
G05
X94.35Y-19.05G85X96.15Y-19.05
G05
T0
M30
