M48
;DRILL file {KiCad 4.0.4-stable} date 11/06/16 20:17:00
;FORMAT={-:-/ absolute / metric / decimal}
FMAT,2
METRIC,TZ
T1C1.702
T2C3.988
%
G90
G05
M71
T1
X-109.855Y19.05
X-109.855Y0.
X-109.855Y-19.05
X-99.695Y19.05
X-99.695Y0.
X-99.695Y-19.05
X-90.805Y19.05
X-90.805Y0.
X-90.805Y-19.05
X-80.645Y19.05
X-80.645Y0.
X-80.645Y-19.05
X-71.755Y19.05
X-71.755Y0.
X-71.755Y-19.05
X-61.595Y19.05
X-61.595Y0.
X-61.595Y-19.05
X-52.705Y19.05
X-52.705Y0.
X-52.705Y-19.05
X-42.545Y19.05
X-42.545Y0.
X-42.545Y-19.05
X-33.655Y19.05
X-33.655Y0.
X-33.655Y-19.05
X-23.495Y19.05
X-23.495Y0.
X-23.495Y-19.05
X-14.605Y19.05
X-14.605Y0.
X-5.08Y-19.05
X-4.445Y19.05
X-4.445Y0.
X4.445Y19.05
X4.445Y0.
X5.08Y-19.05
X14.605Y19.05
X14.605Y0.
X23.495Y19.05
X23.495Y0.
X23.495Y-19.05
X33.655Y19.05
X33.655Y0.
X33.655Y-19.05
X42.545Y19.05
X42.545Y0.
X42.545Y-19.05
X52.705Y19.05
X52.705Y0.
X52.705Y-19.05
X61.595Y19.05
X61.595Y0.
X61.595Y-19.05
X71.755Y19.05
X71.755Y0.
X71.755Y-19.05
X80.645Y19.05
X80.645Y0.
X80.645Y-19.05
X90.805Y19.05
X90.805Y0.
X90.805Y-19.05
X99.695Y19.05
X99.695Y0.
X99.695Y-19.05
X109.855Y19.05
X109.855Y0.
X109.855Y-19.05
T2
X-104.775Y19.05
X-104.775Y0.
X-104.775Y-19.05
X-85.725Y19.05
X-85.725Y0.
X-85.725Y-19.05
X-66.675Y19.05
X-66.675Y0.
X-66.675Y-19.05
X-47.625Y19.05
X-47.625Y0.
X-47.625Y-19.05
X-28.575Y19.05
X-28.575Y0.
X-28.575Y-19.05
X-9.525Y19.05
X-9.525Y0.
X0.Y-19.05
X9.525Y19.05
X9.525Y0.
X28.575Y19.05
X28.575Y0.
X28.575Y-19.05
X47.625Y19.05
X47.625Y0.
X47.625Y-19.05
X66.675Y19.05
X66.675Y0.
X66.675Y-19.05
X85.725Y19.05
X85.725Y0.
X85.725Y-19.05
X104.775Y19.05
X104.775Y0.
X104.775Y-19.05
T0
M30
