G04 #@! TF.FileFunction,Copper,L1,Top,Signal*
%FSLAX46Y46*%
G04 Gerber Fmt 4.6, Leading zero omitted, Abs format (unit mm)*
G04 Created by KiCad (PCBNEW 4.0.4-stable) date 11/06/16 20:17:08*
%MOMM*%
%LPD*%
G01*
G04 APERTURE LIST*
%ADD10C,0.100000*%
%ADD11C,6.100000*%
%ADD12C,2.286000*%
%ADD13C,1.524000*%
%ADD14R,1.524000X1.524000*%
%ADD15O,1.100000X3.600000*%
%ADD16C,0.600000*%
%ADD17C,0.250000*%
G04 APERTURE END LIST*
D10*
D11*
X19050000Y0D03*
X-19050000Y0D03*
X95250000Y-19050000D03*
X-95250000Y-19050000D03*
X57150000Y19050000D03*
D12*
X-6985000Y5080000D03*
X-13335000Y2540000D03*
X31115000Y24130000D03*
X24765000Y21590000D03*
X2540000Y-13970000D03*
X-3810000Y-16510000D03*
X-83185000Y24130000D03*
X-89535000Y21590000D03*
D13*
X-103750000Y11120000D03*
X-106200000Y8580000D03*
X-106200000Y11120000D03*
D14*
X-108740000Y8580000D03*
D13*
X-108740000Y11120000D03*
X-103750000Y8580000D03*
D12*
X-102235000Y24130000D03*
X-108585000Y21590000D03*
X-64135000Y24130000D03*
X-70485000Y21590000D03*
X-45085000Y24130000D03*
X-51435000Y21590000D03*
X-26035000Y24130000D03*
X-32385000Y21590000D03*
X-6985000Y24130000D03*
X-13335000Y21590000D03*
X12065000Y24130000D03*
X5715000Y21590000D03*
X50165000Y24130000D03*
X43815000Y21590000D03*
X69215000Y24130000D03*
X62865000Y21590000D03*
X88265000Y24130000D03*
X81915000Y21590000D03*
X107315000Y24130000D03*
X100965000Y21590000D03*
X-102235000Y5080000D03*
X-108585000Y2540000D03*
X-83185000Y5080000D03*
X-89535000Y2540000D03*
X-64135000Y5080000D03*
X-70485000Y2540000D03*
X-45085000Y5080000D03*
X-51435000Y2540000D03*
X-26035000Y5080000D03*
X-32385000Y2540000D03*
X12065000Y5080000D03*
X5715000Y2540000D03*
X31115000Y5080000D03*
X24765000Y2540000D03*
X50165000Y5080000D03*
X43815000Y2540000D03*
X69215000Y5080000D03*
X62865000Y2540000D03*
X88265000Y5080000D03*
X81915000Y2540000D03*
X107315000Y5080000D03*
X100965000Y2540000D03*
X-102235000Y-13970000D03*
X-108585000Y-16510000D03*
X-83185000Y-13970000D03*
X-89535000Y-16510000D03*
X-64135000Y-13970000D03*
X-70485000Y-16510000D03*
X-45085000Y-13970000D03*
X-51435000Y-16510000D03*
X-26035000Y-13970000D03*
X-32385000Y-16510000D03*
X31115000Y-13970000D03*
X24765000Y-16510000D03*
X50165000Y-13970000D03*
X43815000Y-16510000D03*
X69215000Y-13970000D03*
X62865000Y-16510000D03*
X88265000Y-13970000D03*
X81915000Y-16510000D03*
X107315000Y-13970000D03*
X100965000Y-16510000D03*
D15*
X-92110000Y23490000D03*
X-99410000Y23490000D03*
D11*
X-57150000Y19050000D03*
D16*
X-87250000Y22750000D03*
X-93690000Y17350000D03*
X-101450000Y11100000D03*
X-74350000Y20950000D03*
X-77800000Y20950000D03*
X-88000000Y17000000D03*
X-84000000Y16500000D03*
X-90000000Y6000000D03*
X-65500000Y13000000D03*
X-77630000Y11570000D03*
X-79160000Y8660000D03*
X-91260000Y-1640000D03*
X-91340000Y7640000D03*
X-108450000Y5350000D03*
X-91495558Y-14629442D03*
X-91150000Y11840000D03*
X-72300000Y17150000D03*
X-99450000Y12345000D03*
X-81050000Y-6650000D03*
X-72600000Y-6650000D03*
X-87330000Y9400000D03*
X-89130000Y10200000D03*
X-78750000Y16350000D03*
X-74750000Y14700000D03*
D17*
X-103163600Y-16149990D02*
X-104690000Y-14623590D01*
X-107520000Y-1220000D02*
X-104690000Y-4050000D01*
X-104690000Y-4050000D02*
X-104690000Y-14623590D01*
X-107520000Y795948D02*
X-107520000Y-1220000D01*
X-83185000Y-13970000D02*
X-84946795Y-15731795D01*
X-84946795Y-15731795D02*
X-86281795Y-15731795D01*
X-86281795Y-15731795D02*
X-88143033Y-13870557D01*
X-88143033Y-13870557D02*
X-92395565Y-13870557D01*
X-92395565Y-13870557D02*
X-92935008Y-14410000D01*
X-92935008Y-14410000D02*
X-99021410Y-14410000D01*
X-99021410Y-14410000D02*
X-100761400Y-16149990D01*
X-100761400Y-16149990D02*
X-103163600Y-16149990D01*
X-107520000Y795948D02*
X-106452348Y1863600D01*
X-106452348Y1863600D02*
X-106452349Y3216401D01*
X-106452349Y5747651D02*
X-106200000Y6000000D01*
X-106200000Y6000000D02*
X-106200000Y8580000D01*
X-106452349Y3216401D02*
X-106452349Y5747651D01*
X-106452349Y3216401D02*
X-106450000Y3218750D01*
X-83185000Y-13970000D02*
X-83185000Y5080000D01*
X-83185000Y24130000D02*
X-83185000Y5080000D01*
X-83690000Y4350000D02*
X-82960000Y5080000D01*
X-108450000Y5350000D02*
X-111030901Y2769099D01*
X-92490000Y-15870000D02*
X-91670000Y-15870000D01*
X-111030901Y2769099D02*
X-111030901Y-694099D01*
X-111030901Y-694099D02*
X-105747820Y-5977180D01*
X-90250000Y-14450000D02*
X-88200000Y-14450000D01*
X-105747820Y-5977180D02*
X-105747820Y-14850000D01*
X-105747820Y-14850000D02*
X-103547800Y-17050020D01*
X-86450000Y-16200000D02*
X-82013520Y-16200000D01*
X-103547800Y-17050020D02*
X-100388610Y-17050020D01*
X-100388610Y-17050020D02*
X-98678590Y-15340000D01*
X-79733520Y-13920000D02*
X-63960000Y-13920000D01*
X-98678590Y-15340000D02*
X-93020000Y-15340000D01*
X-93020000Y-15340000D02*
X-92490000Y-15870000D01*
X-91670000Y-15870000D02*
X-90250000Y-14450000D01*
X-88200000Y-14450000D02*
X-86450000Y-16200000D01*
X-82013520Y-16200000D02*
X-79733520Y-13920000D01*
X-64135000Y24130000D02*
X-64135000Y5080000D01*
X-64135000Y-13970000D02*
X-64135000Y-12353554D01*
X-64135000Y-12353554D02*
X-64135000Y5080000D01*
X-105230000Y-14720000D02*
X-103350000Y-16600000D01*
X-108020000Y-1470000D02*
X-105230000Y-4260000D01*
X-105230000Y-4260000D02*
X-105230000Y-14720000D01*
X-106902358Y2050000D02*
X-108020000Y932358D01*
X-108020000Y932358D02*
X-108020000Y-1470000D01*
X-91495558Y-14629442D02*
X-92024146Y-14629442D01*
X-92024146Y-14629442D02*
X-92274704Y-14880000D01*
X-108740000Y8580000D02*
X-108740000Y7568000D01*
X-108740000Y7568000D02*
X-106902358Y5730358D01*
X-106902358Y5730358D02*
X-106902358Y2050000D01*
X-103350000Y-16600000D02*
X-100575000Y-16600000D01*
X-100575000Y-16600000D02*
X-98855000Y-14880000D01*
X-98855000Y-14880000D02*
X-92274704Y-14880000D01*
X-45085000Y5080000D02*
X-45085000Y24130000D01*
X-45085000Y-13970000D02*
X-45085000Y5080000D01*
X-84270000Y25880000D02*
X-81030000Y25880000D01*
X-81030000Y25880000D02*
X-72300000Y17150000D01*
X-85110000Y25040000D02*
X-84270000Y25880000D01*
X-85110000Y23390000D02*
X-85110000Y25040000D01*
X-88670000Y19830000D02*
X-85110000Y23390000D01*
X-88670000Y17255002D02*
X-88670000Y19830000D01*
X-91655000Y12345000D02*
X-91655000Y14270002D01*
X-91655000Y14270002D02*
X-88670000Y17255002D01*
X-99450000Y12345000D02*
X-91655000Y12345000D01*
X-91655000Y12345000D02*
X-91150000Y11840000D01*
X-72600000Y-6650000D02*
X-81050000Y-6650000D01*
X50165000Y5080000D02*
X50165000Y3463554D01*
X50165000Y3463554D02*
X50165000Y-13970000D01*
X50165000Y24130000D02*
X50165000Y5080000D01*
X69215000Y5080000D02*
X69215000Y6696446D01*
X69215000Y6696446D02*
X69215000Y24130000D01*
X69215000Y-13970000D02*
X69215000Y-12353554D01*
X69215000Y-12353554D02*
X69215000Y5080000D01*
X88265000Y24130000D02*
X88265000Y5080000D01*
X88265000Y-13970000D02*
X88265000Y-12353554D01*
X88265000Y-12353554D02*
X88265000Y5080000D01*
X107315000Y5080000D02*
X107315000Y-5315000D01*
X107315000Y-5315000D02*
X105090000Y-7540000D01*
X105090000Y-7540000D02*
X105090000Y-11745000D01*
X105090000Y-11745000D02*
X107315000Y-13970000D01*
X107315000Y24130000D02*
X107315000Y22513554D01*
X107315000Y22513554D02*
X107315000Y5080000D01*
X-102235000Y5080000D02*
X-102235000Y6696446D01*
X-102235000Y6696446D02*
X-102235000Y24130000D01*
X-102235000Y5080000D02*
X-102235000Y-13970000D01*
X-26035000Y5080000D02*
X-26035000Y3463554D01*
X-26035000Y3463554D02*
X-26035000Y-13970000D01*
X-26035000Y24130000D02*
X-26035000Y22513554D01*
X-26035000Y22513554D02*
X-26035000Y5080000D01*
X-6985000Y5080000D02*
X-6985000Y-4445000D01*
X-6985000Y-4445000D02*
X2540000Y-13970000D01*
X-6985000Y24130000D02*
X-6985000Y5080000D01*
X12065000Y24130000D02*
X12065000Y22513554D01*
X12065000Y22513554D02*
X12065000Y5080000D01*
X31115000Y5080000D02*
X31115000Y24130000D01*
X31115000Y-13970000D02*
X31115000Y5080000D01*
X-87330000Y9400000D02*
X-87830000Y9400000D01*
X-89130000Y10200000D02*
X-88630000Y10200000D01*
X-88630000Y10200000D02*
X-87830000Y9400000D01*
X-74750000Y14700000D02*
X-77100000Y14700000D01*
X-77100000Y14700000D02*
X-78750000Y16350000D01*
M02*
